<svg id="Layer_1" data-name="Layer 1" xmlns="http://www.w3.org/2000/svg" viewBox="0 0 489.3369 514.8585"><polygon points="39.409 330.755 0 360.937 0 310.014 39.409 330.755" style="fill:#eefef4"/><polygon points="88.133 293.403 88.133 356.378 39.409 330.755 88.133 293.403" style="fill:#06362d"/><path d="M299.92,164.3838V230.363a17.9135,17.9135,0,0,1-7.0092,14.1971L165.7623,341.9733l-48.7245,37.3525L77.6291,358.5844V333.802a71.499,71.499,0,0,1,28.0188-56.7707l60.1144-46.0782,105.4058-80.7487A17.8769,17.8769,0,0,1,299.92,164.3838Z" transform="translate(-77.6291 -48.5708)" style="fill:#eefef4"/><path d="M299.92,486.3588v59.1667a17.8844,17.8844,0,0,1-26.213,15.8243L165.7623,504.5255l-49.9046-26.2487A71.5292,71.5292,0,0,1,77.6291,414.98v-5.4714l39.4087-30.1824,48.7245,25.6229,124.61,65.5858A17.9047,17.9047,0,0,1,299.92,486.3588Z" transform="translate(-77.6291 -48.5708)" style="fill:#227339"/><path d="M533.4043,311.5943v5.4714a71.53,71.53,0,0,1-38.2286,63.2972L445.271,406.6116,337.3262,463.436a17.8843,17.8843,0,0,1-26.2129-15.8244V388.445a17.9049,17.9049,0,0,1,9.5482-15.8244l124.61-65.5858,48.7245-25.6229Z" transform="translate(-77.6291 -48.5708)" style="fill:#eefef4"/><polygon points="455.775 212.1 455.775 263.024 416.366 232.841 455.775 212.1" style="fill:#eefef4"/><path d="M533.4043,235.8881v24.7824l-39.4088,20.7414L445.271,244.06,318.1225,146.6462a17.9129,17.9129,0,0,1-7.0092-14.1971V66.47a17.8768,17.8768,0,0,1,28.7519-14.1793L445.271,133.0392l60.1144,46.0782A71.4993,71.4993,0,0,1,533.4043,235.8881Z" transform="translate(-77.6291 -48.5708)" style="fill:#227339"/><polygon points="416.366 232.841 367.642 258.464 367.642 195.489 416.366 232.841" style="fill:#06362d"/><line x1="392.7214" y1="427.5771" x2="392.6991" y2="427.5384" style="fill:none"/><polygon points="393.3 431.412 392.424 431.859 391.781 427.979 387.489 419.343 386.077 418.556 386.095 417.555 388.008 418.431 392.693 427.532 393.3 431.412" style="fill:#fff"/><line x1="383.3296" y1="436.8392" x2="383.2588" y2="436.7328" style="fill:none"/><line x1="449.9614" y1="402.242" x2="449.7766" y2="402.319" style="fill:none"/><path d="M560.1714,417.6691l-12.5163.3218-17.04,4.6668-12.6594,7.8138L505.8145,441.182,475.811,457.5963l-47.7769,28.6984L373.3912,519.32l-52.998,32.8644-9.19,6.5086,1.3588,2.539,3.29-1.645,21.3494-10.3707,41.1967-20.2945,32.06-16.021,39.5161-19.597,28.4122-14.6263L507.0125,464.23l10.3171-4.9171,13.1065-3.5583,10.8356-5.1854,13.4819-9.8343,8.69-12.2123,3.5225-9.53Zm-17.1832,11.1038,11.5329-4.8635-40.7676,24.2281-1.0013-.5364.3576-1.0371,14.3938-8.9224ZM515.166,449.711l-1.4125-.8225,5.4714-3.3079,13.625-6.294Zm10.2457-3.7192-9.7629,5.4536-.6973-1.2159Zm-13.625.3935.4827-1.7524,12.2124-7.26Zm-.7511-2.2351,3.0755-2.45,4.5417-2.4319-5.9006,4.5418Zm3.4153-3.5761-4.4344,2.2886L515.47,438.5l8.7614-4.8635Zm-1.198-3.0934,6.5621-3.7728-10.4244,7.6707Zm-32.1493,17.9342,23.0838-12.7488-22.315,13.017-15.7527,10.12-1.4125-.4112Zm24.5858-12.3733-38.3538,24.21-.84-.8046Zm-43.7537,23.942.9119,1.3947L457.5907,471.4l-.6258-1.1086Zm-7.9748,5.2748,1.0192,1.5377-33.365,19.311-.161-.894Zm-45.3987,33.6333L375.4475,524.47,332.0156,548.358l-13.6786,7.1343,57.2535-33.6512,31.6665-18.4526L457.43,474.9762l1.8953,3.3973ZM437.69,497.22l22.5473-12.9813.6437,1.0728Zm26.4453-13.0349.1609-1.1622,3.7907-2.5748-2.2351-6.3834-3.04,1.198-.5185,1.4126,1.4484,3.0754-.4114,1.9847-.5722-.1787-.7151-2.8967-2.7358-5.0065,5.686-3.5046,3.6656,6.4548L469.66,480.77Zm5.9184-3.7549-.6436-3.88-4.2914-8.6363-1.4125-.7867.0179-1.0014,1.9132.8762,4.6847,9.1012.6079,3.88Zm2.5927-.304-.4112-1.4126,40.571-18.6851Zm41.3578-21.9573L509.6052,449.8l-8.9939,5.2211,3.1827,5.8828-1.2873,1.931-8.4218-.1967-2.0741-.1608-22.1182,10.2276-2.2351-3.7549L495.73,450.015l11.229-6.6159,8.225,14.0363Zm6.133-.68-1.77.3755,4.6847-2.8787,6.2224-2.5569Zm7.3309-5.4356-10.1561,3.8443.2683-.751,9.727-4.2019.1073-.0537,12.2839-5.8469Zm28.7878-20.9918-7.188,5.3821-12.0336,7.26-9.8522,4.81-10.3528,4.488-.93.4113-.608-1.0371,1.7524-.9834,4.56-2.02,8.0462-3.7192,11.73-6.33,9.3336-5.9005,8.1357-5.8828,4.5774-4.2019Z" transform="translate(-77.6291 -48.5708)" style="fill:#d1a505"/><polygon points="383.252 436.74 360.061 448.649 382.608 435.668 383.252 436.74" style="fill:#ffd500"/><polygon points="381.696 429.803 330.933 457.321 297.818 475.899 254.386 499.787 240.708 506.922 297.961 473.27 329.628 454.818 379.801 426.405 381.696 429.803" style="fill:#ffd500"/><polygon points="377.351 425.225 343.986 444.536 343.825 443.642 376.332 423.688 377.351 425.225" style="fill:#ffd500"/><polygon points="385.219 419.808 379.962 422.829 379.336 421.721 384.307 418.413 385.219 419.808" style="fill:#ffd500"/><polygon points="386.667 434.452 390.458 431.877 388.222 425.494 385.183 426.692 384.664 428.104 386.113 431.18 385.701 433.164 385.129 432.986 384.414 430.089 381.678 425.082 387.364 421.578 391.03 428.033 392.031 432.199 386.506 435.614 386.667 434.452" style="fill:#ffd500"/><polygon points="435.177 411.457 395.017 431.555 394.606 430.142 435.177 411.457" style="fill:#ffd500"/><polygon points="428.06 394.471 389.706 418.681 388.866 417.876 428.06 394.471" style="fill:#ffd500"/><polygon points="426.558 394.095 404.243 407.112 388.491 417.233 387.078 416.822 403.475 406.844 426.558 394.095" style="fill:#ffd500"/><polygon points="451.645 403.858 442.508 408.918 440.738 409.294 445.422 406.415 451.645 403.858" style="fill:#ffd500"/><polygon points="462.069 396.473 449.839 403.483 439.683 407.327 439.951 406.576 449.678 402.374 449.785 402.32 462.069 396.473" style="fill:#ffd500"/><polygon points="485.797 374.766 478.627 382.491 471.438 387.873 459.405 395.132 449.553 399.942 439.2 404.43 438.27 404.842 437.662 403.804 439.414 402.821 443.974 400.801 452.02 397.081 463.75 390.752 473.083 384.851 481.219 378.968 485.797 374.766" style="fill:#ffd500"/><polygon points="447.783 397.421 438.02 402.875 437.322 401.659 447.783 397.421" style="fill:#ffd500"/><polygon points="455.221 390.716 437.537 401.14 436.124 400.318 441.596 397.01 455.221 390.716" style="fill:#ffd500"/><polygon points="446.853 388.803 434.158 397.814 434.64 396.062 446.853 388.803" style="fill:#ffd500"/><polygon points="442.186 385.137 431.762 392.808 435.624 388.91 442.186 385.137" style="fill:#ffd500"/><polygon points="446.602 385.066 436.822 392.003 432.387 394.292 437.841 389.929 446.602 385.066" style="fill:#ffd500"/><polygon points="441.024 390.698 435.123 395.24 433.407 395.579 436.482 393.13 441.024 390.698" style="fill:#ffd500"/><polygon points="476.892 375.339 436.124 399.567 435.123 399.03 435.481 397.993 449.875 389.071 465.359 380.202 476.892 375.339" style="fill:#ffd500"/><path d="M506.9589,443.3991,495.73,450.015l-28.0724,18.9355,2.2351,3.7549,22.1182-10.2276,2.0741.1608,8.4218.1967,1.2873-1.931-3.1827-5.8828,8.9939-5.2211,4.3987,8.3681,1.18-.7331Zm-4.3628,17.2369-5.3642-3.7192.1966-6.1687Z" transform="translate(-77.6291 -48.5708)" style="fill:#ffd500"/><polygon points="424.967 412.065 419.603 408.346 419.799 402.177 424.967 412.065" style="fill:#d1a505"/></svg>