<svg id="Layer_1" data-name="Layer 1" xmlns="http://www.w3.org/2000/svg" viewBox="0 0 2014.2823 287.9433"><polygon points="22.04 184.98 0 201.86 0 173.38 22.04 184.98" style="fill:#eefef4"/><polygon points="49.29 164.09 49.29 199.31 22.04 184.98 49.29 164.09" style="fill:#06362d"/><path d="M246.65,171.14v36.9a10.0184,10.0184,0,0,1-3.92,7.94l-71.11,54.48-27.25,20.89-22.04-11.6V265.89A39.9872,39.9872,0,0,1,138,234.14l33.62-25.77,58.95-45.16A9.9979,9.9979,0,0,1,246.65,171.14Z" transform="translate(-122.33 -106.3696)" style="fill:#eefef4"/><path d="M246.65,351.21V384.3a10.0021,10.0021,0,0,1-14.66,8.85l-60.37-31.78-27.91-14.68a40.004,40.004,0,0,1-21.38-35.4v-3.06l22.04-16.88,27.25,14.33,69.69,36.68A10.0136,10.0136,0,0,1,246.65,351.21Z" transform="translate(-122.33 -106.3696)" style="fill:#227339"/><path d="M377.23,253.47v3.06a40.004,40.004,0,0,1-21.38,35.4l-27.91,14.68-60.37,31.78a10.0021,10.0021,0,0,1-14.66-8.85V296.45a10.0136,10.0136,0,0,1,5.34-8.85l69.69-36.68,27.25-14.33Z" transform="translate(-122.33 -106.3696)" style="fill:#eefef4"/><polygon points="254.9 118.62 254.9 147.1 232.86 130.22 254.9 118.62" style="fill:#eefef4"/><path d="M377.23,211.13v13.86l-22.04,11.6L327.94,215.7l-71.11-54.48a10.0184,10.0184,0,0,1-3.92-7.94v-36.9a9.9979,9.9979,0,0,1,16.08-7.93l58.95,45.16,33.62,25.77A39.9872,39.9872,0,0,1,377.23,211.13Z" transform="translate(-122.33 -106.3696)" style="fill:#227339"/><polygon points="232.86 130.22 205.61 144.55 205.61 109.33 232.86 130.22" style="fill:#06362d"/><line x1="219.6361" y1="239.1297" x2="219.6236" y2="239.1081" style="fill:none"/><polygon points="219.96 241.274 219.47 241.524 219.11 239.354 216.71 234.524 215.92 234.084 215.93 233.524 217 234.014 219.62 239.104 219.96 241.274" style="fill:#fff"/><line x1="214.3836" y1="244.3098" x2="214.344" y2="244.2502" style="fill:none"/><line x1="251.6485" y1="224.9607" x2="251.5452" y2="225.0037" style="fill:none"/><path d="M392.2,312.7941l-7,.18-9.53,2.61-7.08,4.37-6.79,5.99-16.78,9.18-26.72,16.05-30.56,18.47-29.64,18.38-5.14,3.64.76,1.42,1.84-.92,11.94-5.8,23.04-11.35,17.93-8.96,22.1-10.96,15.89-8.18,16.01-8.08,5.77-2.75,7.33-1.99,6.06-2.9,7.54-5.5,4.86-6.83,1.97-5.33Zm-9.61,6.21,6.45-2.72-22.8,13.55-.56-.3.2-.58,8.05-4.99Zm-15.56,11.71-.79-.46,3.06-1.85,7.62-3.52Zm5.73-2.08-5.46,3.05-.39-.68Zm-7.62.22.27-.98,6.83-4.06Zm-.42-1.25,1.72-1.37,2.54-1.36-3.3,2.54Zm1.91-2-2.48,1.28,3.05-2.44,4.9-2.72Zm-.67-1.73,3.67-2.11-5.83,4.29Zm-17.98,10.03,12.91-7.13-12.48,7.28-8.81,5.66-.79-.23Zm13.75-6.92-21.45,13.54-.47-.45Zm-24.47,13.39.51.78-2.94,1.69-.35-.62Zm-4.46,2.95.57.86-18.66,10.8-.09-.5Zm-25.39,18.81-18.52,10.39-24.29,13.36-7.65,3.99,32.02-18.82,17.71-10.32,28.06-15.89,1.06,1.9Zm16.29-4.85,12.61-7.26.36.6Zm14.79-7.29.09-.65,2.12-1.44-1.25-3.57-1.7.67-.29.79.81,1.72-.23,1.11-.32-.1-.4-1.62-1.53-2.8,3.18-1.96,2.05,3.61.56,2.33Zm3.31-2.1-.36-2.17-2.4-4.83-.79-.44.01-.56,1.07.49,2.62,5.09.34,2.17Zm1.45-.17-.23-.79,22.69-10.45Zm23.13-12.28-2.46-4.68-5.03,2.92,1.78,3.29-.72,1.08-4.71-.11-1.16-.09-12.37,5.72-1.25-2.1,15.7-10.59,6.28-3.7,4.6,7.85Zm3.43-.38-.99.21,2.62-1.61,3.48-1.43Zm4.1-3.04-5.68,2.15.15-.42,5.44-2.35.06-.03,6.87-3.27Zm16.1-11.74-4.02,3.01-6.73,4.06-5.51,2.69-5.79,2.51-.52.23-.34-.58.98-.55,2.55-1.13,4.5-2.08,6.56-3.54,5.22-3.3,4.55-3.29,2.56-2.35Z" transform="translate(-122.33 -106.3696)" style="fill:#d1a505"/><polygon points="214.34 244.254 201.37 250.914 213.98 243.654 214.34 244.254" style="fill:#ffd500"/><polygon points="213.47 240.374 185.08 255.764 166.56 266.154 142.27 279.514 134.62 283.504 166.64 264.684 184.35 254.365 212.41 238.474 213.47 240.374" style="fill:#ffd500"/><polygon points="211.04 237.814 192.38 248.615 192.29 248.115 210.47 236.954 211.04 237.814" style="fill:#ffd500"/><polygon points="215.44 234.784 212.5 236.474 212.15 235.854 214.93 234.004 215.44 234.784" style="fill:#ffd500"/><polygon points="216.25 242.974 218.37 241.534 217.12 237.964 215.42 238.634 215.13 239.425 215.94 241.144 215.71 242.254 215.39 242.154 214.99 240.534 213.46 237.735 216.64 235.774 218.69 239.384 219.25 241.714 216.16 243.624 216.25 242.974" style="fill:#ffd500"/><polygon points="243.38 230.115 220.92 241.354 220.69 240.564 243.38 230.115" style="fill:#ffd500"/><polygon points="239.4 220.615 217.95 234.154 217.48 233.704 239.4 220.615" style="fill:#ffd500"/><polygon points="238.56 220.404 226.08 227.684 217.27 233.344 216.48 233.115 225.65 227.534 238.56 220.404" style="fill:#ffd500"/><polygon points="252.59 225.865 247.48 228.694 246.49 228.904 249.11 227.294 252.59 225.865" style="fill:#ffd500"/><polygon points="258.42 221.735 251.58 225.654 245.9 227.805 246.05 227.384 251.49 225.034 251.55 225.004 258.42 221.735" style="fill:#ffd500"/><polygon points="271.69 209.594 267.68 213.914 263.66 216.925 256.93 220.985 251.42 223.675 245.63 226.184 245.11 226.414 244.77 225.834 245.75 225.284 248.3 224.154 252.8 222.074 259.36 218.534 264.58 215.235 269.13 211.944 271.69 209.594" style="fill:#ffd500"/><polygon points="250.43 222.264 244.97 225.314 244.58 224.634 250.43 222.264" style="fill:#ffd500"/><polygon points="254.59 218.514 244.7 224.344 243.91 223.884 246.97 222.034 254.59 218.514" style="fill:#ffd500"/><polygon points="249.91 217.444 242.81 222.485 243.08 221.504 249.91 217.444" style="fill:#ffd500"/><polygon points="247.3 215.394 241.47 219.684 243.63 217.504 247.3 215.394" style="fill:#ffd500"/><polygon points="249.77 215.354 244.3 219.235 241.82 220.514 244.87 218.074 249.77 215.354" style="fill:#ffd500"/><polygon points="246.65 218.504 243.35 221.044 242.39 221.235 244.11 219.865 246.65 218.504" style="fill:#ffd500"/><polygon points="266.71 209.914 243.91 223.464 243.35 223.164 243.55 222.584 251.6 217.594 260.26 212.634 266.71 209.914" style="fill:#ffd500"/><path d="M362.44,327.1841l-6.28,3.7-15.7,10.59,1.25,2.1,12.37-5.72,1.16.09,4.71.11.72-1.08-1.78-3.29,5.03-2.92,2.46,4.68.66-.41Zm-2.44,9.64-3-2.08.11-3.45Z" transform="translate(-122.33 -106.3696)" style="fill:#ffd500"/><polygon points="237.67 230.454 234.67 228.374 234.78 224.925 237.67 230.454" style="fill:#d1a505"/><path d="M526.7959,318.0635a72.46,72.46,0,0,1-26.5225-4.7168,62.3964,62.3964,0,0,1-35.0654-33.7305,68.398,68.398,0,0,1,0-51.2641A61.72,61.72,0,0,1,479.27,208.06a63.5475,63.5475,0,0,1,21.1817-13.439,76.96,76.96,0,0,1,54.4687.5342A55.3872,55.3872,0,0,1,576.2793,210.73l-14.9522,14.062A47.1275,47.1275,0,0,0,546.02,213.8452a44.5135,44.5135,0,0,0-17.9775-3.6489,48.219,48.219,0,0,0-17.89,3.2041,41.5651,41.5651,0,0,0-14.0615,9.0776,42.3594,42.3594,0,0,0-9.3457,13.8843,47.6028,47.6028,0,0,0,0,35.2437,42.3589,42.3589,0,0,0,9.3457,13.8842,41.5756,41.5756,0,0,0,14.0615,9.0782,48.229,48.229,0,0,0,17.89,3.2031A44.463,44.463,0,0,0,546.02,294.123a45.9541,45.9541,0,0,0,15.3076-11.125L576.2793,297.06a56.1651,56.1651,0,0,1-21.3594,15.664A71.5728,71.5728,0,0,1,526.7959,318.0635Z" transform="translate(-122.33 -106.3696)" style="fill:#eefef4"/><path d="M585.8916,316.2842l56.0693-124.6h22.7842l56.2481,124.6H696.6074l-48.06-112.3179h9.2568L609.5654,316.2842Zm25.81-28.836,6.4082-18.1562h67.1054l6.2305,18.1562Z" transform="translate(-122.33 -106.3696)" style="fill:#eefef4"/><path d="M746.8008,316.2842v-124.6h19.0459l78.1416,96.12h-9.4336v-96.12h22.7832v124.6H838.292l-77.9639-96.12h9.4346v96.12Z" transform="translate(-122.33 -106.3696)" style="fill:#eefef4"/><path d="M901.127,316.2842v-124.6h54.6455q19.9335,0,35.333,7.7431a57.6411,57.6411,0,0,1,23.9414,21.8052q8.543,14.0632,8.5439,32.752t-8.5439,32.7519a57.6262,57.6262,0,0,1-23.9414,21.8047q-15.3985,7.7432-35.333,7.7432Zm23.14-19.58h30.082q14.06,0,24.2969-5.34a39.7678,39.7678,0,0,0,16.0205-14.9522q5.7817-9.6116,5.7842-22.4277,0-13.1712-5.7842-22.606a40.1773,40.1773,0,0,0-16.0205-14.7744q-10.2378-5.34-24.2969-5.34h-30.082Z" transform="translate(-122.33 -106.3696)" style="fill:#eefef4"/><path d="M1058.2988,316.2842v-124.6h23.14v124.6Z" transform="translate(-122.33 -106.3696)" style="fill:#eefef4"/><path d="M1125.0479,316.2842v-124.6h54.6455q19.9335,0,35.333,7.7431a57.6411,57.6411,0,0,1,23.9414,21.8052q8.543,14.0632,8.5439,32.752t-8.5439,32.7519a57.6262,57.6262,0,0,1-23.9414,21.8047q-15.3985,7.7432-35.333,7.7432Zm23.14-19.58h30.082q14.06,0,24.2969-5.34a39.7678,39.7678,0,0,0,16.0205-14.9522q5.7817-9.6116,5.7842-22.4277,0-13.1712-5.7842-22.606a40.1773,40.1773,0,0,0-16.0205-14.7744q-10.2378-5.34-24.2969-5.34h-30.082Z" transform="translate(-122.33 -106.3696)" style="fill:#eefef4"/><path d="M1398.9863,318.0635a72.4591,72.4591,0,0,1-26.5224-4.7168,62.3961,62.3961,0,0,1-35.0655-33.7305,68.3993,68.3993,0,0,1,0-51.2641A61.72,61.72,0,0,1,1351.46,208.06a63.546,63.546,0,0,1,21.1816-13.439,76.96,76.96,0,0,1,54.4688.5342A55.3876,55.3876,0,0,1,1448.47,210.73l-14.9521,14.062a47.13,47.13,0,0,0-15.3076-10.9468,44.514,44.514,0,0,0-17.9776-3.6489,48.2181,48.2181,0,0,0-17.89,3.2041,41.5655,41.5655,0,0,0-14.0616,9.0776,42.3609,42.3609,0,0,0-9.3457,13.8843,47.6028,47.6028,0,0,0,0,35.2437,42.36,42.36,0,0,0,9.3457,13.8842,41.576,41.576,0,0,0,14.0616,9.0782,48.2281,48.2281,0,0,0,17.89,3.2031,44.4635,44.4635,0,0,0,17.9776-3.6485,45.9561,45.9561,0,0,0,15.3076-11.125L1448.47,297.06a56.1655,56.1655,0,0,1-21.3593,15.664A71.5733,71.5733,0,0,1,1398.9863,318.0635Z" transform="translate(-122.33 -106.3696)" style="fill:#eefef4"/><path d="M1458.082,316.2842l56.0694-124.6h22.7841l56.2481,124.6h-24.3857l-48.0606-112.3179h9.2568l-48.2382,112.3179Zm25.81-28.836L1490.3,269.292h67.1055l6.23,18.1562Z" transform="translate(-122.33 -106.3696)" style="fill:#eefef4"/><path d="M1618.9912,316.2842v-124.6h19.0459l78.1416,96.12h-9.4336v-96.12h22.7832v124.6h-19.0459l-77.9638-96.12h9.4345v96.12Z" transform="translate(-122.33 -106.3696)" style="fill:#eefef4"/><path d="M1807.4932,316.2842l-54.4678-124.6h25.0976l48.5938,112.6743h-14.5957l49.4844-112.6743h22.9619l-54.29,124.6Z" transform="translate(-122.33 -106.3696)" style="fill:#eefef4"/><path d="M1886.7031,316.2842l56.0694-124.6h22.7841l56.2481,124.6h-24.3858l-48.06-112.3179h9.2568L1910.377,316.2842Zm25.81-28.836,6.4082-18.1562h67.1055l6.23,18.1562Z" transform="translate(-122.33 -106.3696)" style="fill:#eefef4"/><path d="M2086.2383,318.0635a92.0886,92.0886,0,0,1-27.8574-4.1826q-13.2627-4.1807-21.2705-10.7686l8.01-17.978a64.7333,64.7333,0,0,0,18.5117,9.79,67.0977,67.0977,0,0,0,22.6065,3.916q9.7866,0,15.8418-2.1357,6.0483-2.1357,8.8994-5.7852a13.0959,13.0959,0,0,0,2.8486-8.2768,11.4306,11.4306,0,0,0-4.0947-9.167,30.2633,30.2633,0,0,0-10.5908-5.5181q-6.4995-2.0442-14.418-3.7378-7.9218-1.69-15.8418-4.1831a71.2,71.2,0,0,1-14.5068-6.3188,30.157,30.157,0,0,1-10.5908-10.2349q-4.005-6.4086-4.0049-16.3764a33.7174,33.7174,0,0,1,5.4287-18.6006q5.4271-8.4522,16.5537-13.5283,11.1225-5.0729,28.2129-5.0728a88.815,88.815,0,0,1,22.25,2.8477A64.4441,64.4441,0,0,1,2131.45,200.94l-7.2979,17.9781a68.7056,68.7056,0,0,0-17.2666-7.3868,65.53,65.53,0,0,0-17.0878-2.4028q-9.4367,0-15.4864,2.314-6.0526,2.3151-8.81,6.1406a14.1285,14.1285,0,0,0-2.7588,8.4551,11.5337,11.5337,0,0,0,4.0049,9.167,28.2592,28.2592,0,0,0,10.5019,5.4292q6.4952,1.9606,14.5069,3.7378,8.01,1.7813,15.8418,4.1831a68.7622,68.7622,0,0,1,14.4179,6.23,30.4961,30.4961,0,0,1,10.5908,10.146q4.0064,6.32,4.0059,16.1088a33.4257,33.4257,0,0,1-5.43,18.4229q-5.4317,8.4565-16.6426,13.5283Q2103.3253,318.0639,2086.2383,318.0635Z" transform="translate(-122.33 -106.3696)" style="fill:#eefef4"/></svg>