<svg id="Layer_1" data-name="Layer 1" xmlns="http://www.w3.org/2000/svg" viewBox="0 0 2014.2819 287.9433"><polygon points="22.04 184.98 0 201.86 0 173.38 22.04 184.98" style="fill:#eefef4"/><polygon points="49.29 164.09 49.29 199.31 22.04 184.98 49.29 164.09" style="fill:#06362d"/><path d="M212.8858,198.9149v36.9a10.0184,10.0184,0,0,1-3.92,7.94l-71.11,54.48-27.25,20.89-22.04-11.6v-13.86a39.9869,39.9869,0,0,1,15.67-31.75l33.62-25.77,58.95-45.16A9.998,9.998,0,0,1,212.8858,198.9149Z" transform="translate(-88.5658 -134.1444)" style="fill:#eefef4"/><path d="M212.8858,378.9848v33.09a10.0021,10.0021,0,0,1-14.66,8.85l-60.37-31.78-27.91-14.68a40.0037,40.0037,0,0,1-21.38-35.4v-3.06l22.04-16.88,27.25,14.33,69.69,36.68A10.0135,10.0135,0,0,1,212.8858,378.9848Z" transform="translate(-88.5658 -134.1444)" style="fill:#227339"/><path d="M343.4658,281.2448v3.06a40.0041,40.0041,0,0,1-21.38,35.4l-27.91,14.68-60.37,31.78a10.002,10.002,0,0,1-14.66-8.85v-33.09a10.0137,10.0137,0,0,1,5.34-8.85l69.69-36.68,27.25-14.33Z" transform="translate(-88.5658 -134.1444)" style="fill:#eefef4"/><polygon points="254.9 118.62 254.9 147.1 232.86 130.22 254.9 118.62" style="fill:#eefef4"/><path d="M343.4658,238.9048v13.86l-22.04,11.6-27.25-20.89-71.11-54.48a10.0178,10.0178,0,0,1-3.92-7.94v-36.9a9.9978,9.9978,0,0,1,16.08-7.93l58.95,45.16,33.62,25.77A39.9875,39.9875,0,0,1,343.4658,238.9048Z" transform="translate(-88.5658 -134.1444)" style="fill:#227339"/><polygon points="232.86 130.22 205.61 144.55 205.61 109.33 232.86 130.22" style="fill:#06362d"/><line x1="219.6361" y1="239.1297" x2="219.6236" y2="239.1081" style="fill:none"/><line x1="214.3836" y1="244.3098" x2="214.344" y2="244.2502" style="fill:none"/><line x1="251.6485" y1="224.9607" x2="251.5452" y2="225.0037" style="fill:none"/><path d="M358.44,340.57l-7,.18-9.53,2.61-7.08,4.37-6.79,5.99-16.78,9.18-26.72,16.05-30.56,18.47L224.34,415.8l-5.14,3.64.76,1.42,1.84-.92,11.94-5.8,23.04-11.35,17.93-8.96,22.1-10.96,15.89-8.18,16.01-8.08,5.77-2.75,7.33-1.99,6.06-2.9,7.54-5.5,4.86-6.83,1.97-5.33Zm-9.61,6.21,6.45-2.72-22.8,13.55-.56-.3.2-.58,8.05-4.99Zm-15.56,11.71-.79-.46,3.06-1.85,7.62-3.52Zm5.73-2.08-5.46,3.05-.39-.68Zm-7.62.22.27-.98,6.83-4.06Zm-.42-1.25,1.72-1.37,2.54-1.36-3.3,2.54Zm1.91-2-2.48,1.28,3.05-2.44,4.9-2.72Zm-.67-1.73,3.67-2.11-5.83,4.29Zm-17.98,10.03,12.91-7.13-12.48,7.28-8.81,5.66-.79-.23Zm13.75-6.92L306.52,368.3l-.47-.45ZM303.5,368.15l.51.78-2.94,1.69-.35-.62Zm-4.46,2.95.57.86-18.66,10.8-.09-.5Zm-25.39,18.81L255.13,400.3l-24.29,13.36-7.65,3.99,32.02-18.82,17.71-10.32,28.06-15.89,1.06,1.9Zm29.26-11.51-12.97,6.66,12.61-7.26.36.59Zm1.82-.63.09-.65,2.12-1.44-1.25-3.57-1.7.67-.29.79.81,1.72-.23,1.11-.32-.1-.4-1.62-1.53-2.8,3.18-1.96,2.05,3.61.56,2.33Zm3.31-2.1-.36-2.17-2.4-4.83-.79-.44.01-.56,1.07.49,2.62,5.09.34,2.17Zm1.45-.17-.23-.79,22.69-10.45Zm23.13-12.28-2.46-4.68-5.03,2.92,1.78,3.29-.72,1.08-4.71-.11-1.16-.09-12.37,5.72-1.25-2.1,15.7-10.59,6.28-3.7,4.6,7.85Zm3.43-.38-.99.21,2.62-1.61,3.48-1.43Zm4.1-3.04-5.68,2.15.15-.42,5.44-2.35.05-.03h.01l.09-.04,6.78-3.23Zm16.1-11.74-4.02,3.01-6.73,4.06-5.51,2.69-5.79,2.51-.52.23-.34-.58.98-.55,2.55-1.13,4.5-2.08,6.56-3.54,5.22-3.3,4.55-3.29,2.56-2.35Z" transform="translate(-88.5658 -134.1444)" style="fill:#d1a505"/><polygon points="219.964 241.276 219.474 241.526 219.114 239.356 216.714 234.526 215.924 234.086 215.934 233.526 217.004 234.016 219.624 239.106 219.964 241.276" style="fill:#ffd500"/><polygon points="214.34 244.254 201.37 250.914 213.98 243.654 214.34 244.254" style="fill:#ffd500"/><polygon points="213.47 240.374 185.08 255.764 166.56 266.154 142.27 279.514 134.62 283.504 166.64 264.684 184.35 254.365 212.41 238.474 213.47 240.374" style="fill:#ffd500"/><polygon points="211.04 237.814 192.38 248.615 192.29 248.115 210.47 236.954 211.04 237.814" style="fill:#ffd500"/><polygon points="215.44 234.784 212.5 236.474 212.15 235.854 214.93 234.004 215.44 234.784" style="fill:#ffd500"/><polygon points="216.25 242.974 218.37 241.534 217.12 237.964 215.42 238.634 215.13 239.425 215.94 241.144 215.71 242.254 215.39 242.154 214.99 240.534 213.46 237.735 216.64 235.774 218.69 239.384 219.25 241.714 216.16 243.624 216.25 242.974" style="fill:#ffd500"/><polygon points="243.38 230.115 220.92 241.354 220.69 240.564 243.38 230.115" style="fill:#ffd500"/><polygon points="239.4 220.615 217.95 234.154 217.48 233.704 239.4 220.615" style="fill:#ffd500"/><polygon points="238.56 220.404 226.08 227.684 217.27 233.344 216.48 233.115 225.65 227.534 238.56 220.404" style="fill:#ffd500"/><polygon points="252.59 225.865 247.48 228.694 246.49 228.904 249.11 227.294 252.59 225.865" style="fill:#ffd500"/><polygon points="258.42 221.735 251.58 225.654 245.9 227.805 246.05 227.384 251.49 225.034 251.55 225.004 258.42 221.735" style="fill:#ffd500"/><polygon points="271.69 209.594 267.68 213.914 263.66 216.925 256.93 220.985 251.42 223.675 245.63 226.184 245.11 226.414 244.77 225.834 245.75 225.284 248.3 224.154 252.8 222.074 259.36 218.534 264.58 215.235 269.13 211.944 271.69 209.594" style="fill:#ffd500"/><polygon points="250.43 222.264 244.97 225.314 244.58 224.634 250.43 222.264" style="fill:#ffd500"/><polygon points="254.59 218.514 244.7 224.344 243.91 223.884 246.97 222.034 254.59 218.514" style="fill:#ffd500"/><polygon points="249.91 217.444 242.81 222.485 243.08 221.504 249.91 217.444" style="fill:#ffd500"/><polygon points="247.3 215.394 241.47 219.684 243.63 217.504 247.3 215.394" style="fill:#ffd500"/><polygon points="249.77 215.354 244.3 219.235 241.82 220.514 244.87 218.074 249.77 215.354" style="fill:#ffd500"/><polygon points="246.65 218.504 243.35 221.044 242.39 221.235 244.11 219.865 246.65 218.504" style="fill:#ffd500"/><polygon points="266.71 209.914 243.91 223.464 243.35 223.164 243.55 222.584 251.6 217.594 260.26 212.634 266.71 209.914" style="fill:#ffd500"/><path d="M328.6757,354.9589l-6.28,3.7-15.7,10.59,1.25,2.1,12.37-5.72,1.16.09,4.71.11.72-1.08-1.78-3.29,5.03-2.92,2.46,4.68.66-.41Zm-2.44,9.64-3-2.08.11-3.45Z" transform="translate(-88.5658 -134.1444)" style="fill:#ffd500"/><polygon points="237.67 230.454 234.67 228.374 234.78 224.925 237.67 230.454" style="fill:#d1a505"/><path d="M493.0317,343.69a72.4778,72.4778,0,0,1-26.5224-4.7168,62.4014,62.4014,0,0,1-35.0655-33.7314,68.4,68.4,0,0,1,0-51.2642,61.7222,61.7222,0,0,1,14.0616-20.292,63.5458,63.5458,0,0,1,21.1816-13.4389,76.9607,76.9607,0,0,1,54.4688.5341,55.3888,55.3888,0,0,1,21.3593,15.5748L527.563,250.418a47.1286,47.1286,0,0,0-15.3076-10.9468,44.5119,44.5119,0,0,0-17.9776-3.6489,48.2161,48.2161,0,0,0-17.89,3.2041,41.5641,41.5641,0,0,0-14.0615,9.0776,42.3568,42.3568,0,0,0-9.3457,13.8843,47.6025,47.6025,0,0,0,0,35.2441,42.36,42.36,0,0,0,9.3457,13.8838,41.5654,41.5654,0,0,0,14.0615,9.0781,48.2262,48.2262,0,0,0,17.89,3.2041,44.4637,44.4637,0,0,0,17.9776-3.6494,45.9551,45.9551,0,0,0,15.3076-11.125l14.9521,14.0625a56.1772,56.1772,0,0,1-21.3593,15.6641A71.5912,71.5912,0,0,1,493.0317,343.69Z" transform="translate(-88.5658 -134.1444)" style="fill:#eefef4"/><path d="M552.1274,341.91l56.0694-124.6H630.981l56.248,124.6H662.8433L614.7827,229.5923H624.04L575.8013,341.91Zm25.81-28.836,6.4082-18.1562h67.1055l6.2305,18.1562Z" transform="translate(-88.5658 -134.1444)" style="fill:#eefef4"/><path d="M713.0366,341.91V217.31h19.0459l78.1416,96.1206h-9.4336V217.31h22.7832v124.6H804.5278L726.564,245.79h9.4345v96.12Z" transform="translate(-88.5658 -134.1444)" style="fill:#eefef4"/><path d="M867.3628,341.91V217.31h54.6455q19.9337,0,35.333,7.7431a57.64,57.64,0,0,1,23.9414,21.8052q8.543,14.0633,8.544,32.752t-8.544,32.7519a57.613,57.613,0,0,1-23.9414,21.8047q-15.3984,7.7432-35.333,7.7432Zm23.14-19.58h30.0821q14.0595,0,24.2968-5.34a39.7638,39.7638,0,0,0,16.0206-14.9521q5.7816-9.6108,5.7841-22.4277,0-13.1712-5.7841-22.606A40.1768,40.1768,0,0,0,944.8813,242.23q-10.2377-5.34-24.2968-5.34H890.5024Z" transform="translate(-88.5658 -134.1444)" style="fill:#eefef4"/><path d="M1024.5347,341.91V217.31h23.14v124.6Z" transform="translate(-88.5658 -134.1444)" style="fill:#eefef4"/><path d="M1091.2837,341.91V217.31h54.645q19.9336,0,35.333,7.7431a57.64,57.64,0,0,1,23.9414,21.8052q8.543,14.0633,8.544,32.752t-8.544,32.7519a57.613,57.613,0,0,1-23.9414,21.8047q-15.3984,7.7432-35.333,7.7432Zm23.1392-19.58h30.082q14.06,0,24.2969-5.34a39.7641,39.7641,0,0,0,16.0205-14.9521q5.7817-9.6108,5.7841-22.4277,0-13.1712-5.7841-22.606a40.1772,40.1772,0,0,0-16.0205-14.7744q-10.2378-5.34-24.2969-5.34h-30.082Z" transform="translate(-88.5658 -134.1444)" style="fill:#eefef4"/><path d="M1365.2217,343.69a72.4788,72.4788,0,0,1-26.5225-4.7168,62.4008,62.4008,0,0,1-35.0654-33.7314,68.3983,68.3983,0,0,1,0-51.2642,61.7219,61.7219,0,0,1,14.0615-20.292,63.5462,63.5462,0,0,1,21.1817-13.4389,76.96,76.96,0,0,1,54.4687.5341,55.39,55.39,0,0,1,21.3594,15.5748l-14.9522,14.062a47.1275,47.1275,0,0,0-15.3076-10.9468,44.5118,44.5118,0,0,0-17.9775-3.6489,48.217,48.217,0,0,0-17.89,3.2041,41.5651,41.5651,0,0,0-14.0615,9.0776,42.3583,42.3583,0,0,0-9.3457,13.8843,47.6038,47.6038,0,0,0,0,35.2441,42.3614,42.3614,0,0,0,9.3457,13.8838,41.5663,41.5663,0,0,0,14.0615,9.0781,48.2271,48.2271,0,0,0,17.89,3.2041,44.4636,44.4636,0,0,0,17.9775-3.6494,45.9541,45.9541,0,0,0,15.3076-11.125l14.9522,14.0625a56.1783,56.1783,0,0,1-21.3594,15.6641A71.5907,71.5907,0,0,1,1365.2217,343.69Z" transform="translate(-88.5658 -134.1444)" style="fill:#eefef4"/><path d="M1424.3174,341.91l56.0693-124.6h22.7842l56.248,124.6h-24.3857l-48.0605-112.3179h9.2568L1447.9912,341.91Zm25.81-28.836,6.4082-18.1562h67.1054l6.2305,18.1562Z" transform="translate(-88.5658 -134.1444)" style="fill:#eefef4"/><path d="M1585.2266,341.91V217.31h19.0459l78.1416,96.1206h-9.4336V217.31h22.7832v124.6h-19.0459l-77.9639-96.12h9.4346v96.12Z" transform="translate(-88.5658 -134.1444)" style="fill:#eefef4"/><path d="M1773.7285,341.91l-54.4678-124.6h25.0977l48.5937,112.6743h-14.5957L1827.8408,217.31h22.9619l-54.29,124.6Z" transform="translate(-88.5658 -134.1444)" style="fill:#eefef4"/><path d="M1852.9385,341.91l56.0693-124.6h22.7842l56.248,124.6h-24.3857l-48.06-112.3179h9.2568L1876.6123,341.91Zm25.81-28.836,6.4082-18.1562h67.1055l6.23,18.1562Z" transform="translate(-88.5658 -134.1444)" style="fill:#eefef4"/><path d="M2052.4736,343.69a92.12,92.12,0,0,1-27.8574-4.1826q-13.2627-4.1806-21.27-10.7695l8.01-17.9776a64.7549,64.7549,0,0,0,18.5117,9.79,67.0992,67.0992,0,0,0,22.6064,3.916q9.7866,0,15.8418-2.1367,6.0484-2.1359,8.8994-5.7852a13.0956,13.0956,0,0,0,2.8487-8.2763,11.4291,11.4291,0,0,0-4.0947-9.167,30.2617,30.2617,0,0,0-10.5909-5.5186q-6.5-2.0442-14.4179-3.7378-7.922-1.69-15.8418-4.1831a71.2008,71.2008,0,0,1-14.5069-6.3188,30.157,30.157,0,0,1-10.5908-10.2349q-4.0049-6.4088-4.0049-16.3765a33.7179,33.7179,0,0,1,5.4287-18.6006q5.4273-8.4521,16.5537-13.5283,11.1226-5.0727,28.2129-5.0727a88.8137,88.8137,0,0,1,22.25,2.8476,64.4394,64.4394,0,0,1,19.2246,8.188l-7.2978,17.978a68.7083,68.7083,0,0,0-17.2666-7.3867,65.5308,65.5308,0,0,0-17.0879-2.4028q-9.4365,0-15.4863,2.314-6.0528,2.3151-8.8106,6.1406a14.1285,14.1285,0,0,0-2.7588,8.4551,11.534,11.534,0,0,0,4.0049,9.167,28.26,28.26,0,0,0,10.502,5.4292q6.4951,1.9607,14.5068,3.7377,8.01,1.7813,15.8418,4.1832a68.7628,68.7628,0,0,1,14.418,6.23,30.4988,30.4988,0,0,1,10.5908,10.146q4.0064,6.32,4.0059,16.1089a33.4316,33.4316,0,0,1-5.43,18.4238q-5.4317,8.4552-16.6426,13.5274Q2069.5605,343.69,2052.4736,343.69Z" transform="translate(-88.5658 -134.1444)" style="fill:#eefef4"/></svg>